<svg width="145" height="22" viewBox="0 0 145 22" fill="none" xmlns="http://www.w3.org/2000/svg">
	<path d="M2.04241 19.4835C1.06706 18.5052 0.402896 17.2589 0.133898 15.9022C-0.1351 14.5455 0.0031463 13.1392 0.531158 11.8613C1.05917 10.5833 1.95323 9.49105 3.1003 8.72258C4.24737 7.95411 5.59593 7.54395 6.97547 7.54395C8.355 7.54395 9.70356 7.95411 10.8506 8.72258C11.9977 9.49105 12.8918 10.5833 13.4198 11.8613C13.9478 13.1392 14.086 14.5455 13.817 15.9022C13.548 17.2589 12.8839 18.5052 11.9085 19.4835C11.2608 20.1332 10.4918 20.6487 9.64536 21.0004C8.79892 21.3521 7.89168 21.5331 6.97547 21.5331C6.05925 21.5331 5.15201 21.3521 4.30558 21.0004C3.45915 20.6487 2.69011 20.1332 2.04241 19.4835Z" fill="#044046" />
	<path d="M30.0932 19.4835C29.1178 18.5052 28.4537 17.2589 28.1847 15.9022C27.9157 14.5455 28.0539 13.1392 28.5819 11.8613C29.1099 10.5833 30.004 9.49105 31.1511 8.72258C32.2981 7.95411 33.6467 7.54395 35.0262 7.54395C36.4058 7.54395 37.7543 7.95411 38.9014 8.72258C40.0485 9.49105 40.9425 10.5833 41.4705 11.8613C41.9986 13.1392 42.1368 14.5455 41.8678 15.9022C41.5988 17.2589 40.9346 18.5052 39.9593 19.4835C39.3116 20.1332 38.5426 20.6487 37.6961 21.0004C36.8497 21.3521 35.9425 21.5331 35.0262 21.5331C34.11 21.5331 33.2028 21.3521 32.3564 21.0004C31.5099 20.6487 30.7409 20.1332 30.0932 19.4835Z" fill="#044046" />
	<path d="M6.96094 14.5392C6.96094 6.77929 13.2565 0.46582 20.9955 0.46582C28.7344 0.46582 35.0236 6.77929 35.0236 14.5392" fill="#FF8752" />
	<path d="M68.2107 1.14004V13.9H67.8627L59.8297 1.14004H56.0017V21.44H59.8007V8.33204H60.1777L68.2107 21.44H72.0097V1.14004H68.2107Z" fill="#044046" />
	<path d="M81.0988 6.79504C77.2708 6.79504 73.8778 9.57904 73.8778 14.074C73.8778 18.598 77.2998 21.585 81.2148 21.585C84.0568 21.585 86.6958 19.99 87.7978 17.09H84.1438C84.1438 17.09 83.3028 18.308 81.3308 18.308C79.7648 18.308 77.9668 17.496 77.5318 15.292H88.1168C88.5808 9.37604 84.8108 6.79504 81.0988 6.79504ZM81.2148 9.95604C82.6648 9.95604 83.8538 10.652 84.2888 12.363H77.7638C78.3438 10.855 79.6198 9.95604 81.2148 9.95604Z" fill="#044046" />
	<path d="M98.519 17.786C98.519 17.786 97.707 18.279 96.837 18.279C95.793 18.279 94.981 17.525 94.981 16.539V10.043H98.635V6.94004H94.981V2.59004H91.472V5.49004C91.472 6.53404 90.805 7.20104 89.819 7.20104H88.369V10.043H91.269V16.771C91.269 19.7 93.676 21.585 96.46 21.585C98.693 21.585 99.911 20.367 99.911 20.367L98.519 17.786Z" fill="#044046" />
	<path d="M109.037 17.786C109.037 17.786 108.225 18.279 107.355 18.279C106.311 18.279 105.499 17.525 105.499 16.539V10.043H109.153V6.94004H105.499V2.59004H101.99V5.49004C101.99 6.53404 101.323 7.20104 100.337 7.20104H98.8866V10.043H101.787V16.771C101.787 19.7 104.194 21.585 106.978 21.585C109.211 21.585 110.429 20.367 110.429 20.367L109.037 17.786Z" fill="#044046" />
	<path d="M119.086 6.79504C117.578 6.79504 116.273 7.31704 115.345 8.36104V0.850039H111.72V21.44H114.562L114.968 20.048H115.403C116.302 21.034 117.52 21.585 119.086 21.585C122.769 21.585 125.843 18.569 125.843 14.19C125.843 9.81104 122.769 6.79504 119.086 6.79504ZM118.535 18.018C116.65 18.018 115.345 16.597 115.345 14.19C115.345 11.783 116.65 10.362 118.535 10.362C120.304 10.362 122.073 11.638 122.073 14.19C122.073 16.742 120.304 18.018 118.535 18.018Z" fill="#044046" />
	<path d="M130.47 5.31604C131.804 5.31604 132.906 4.18504 132.906 2.88004C132.906 1.48804 131.804 0.415039 130.47 0.415039C129.107 0.415039 127.976 1.48804 127.976 2.88004C127.976 4.18504 129.107 5.31604 130.47 5.31604ZM132.326 6.94004H128.614V21.44H132.326V6.94004Z" fill="#044046" />
	<path d="M135.821 0.850039V21.44H139.591V0.850039H135.821Z" fill="#044046" />
</svg>
