<svg xmlns="http://www.w3.org/2000/svg" xmlns:cc="http://creativecommons.org/ns#" xmlns:dc="http://purl.org/dc/elements/1.1/" xmlns:rdf="http://www.w3.org/1999/02/22-rdf-syntax-ns#" version="1.1" viewBox="0 0 100 103" x="0px" y="0px"><path d="m50.812 4.1035a1.2501 1.2501 0 0 0-0.31055 0.03125l-43.625 10a1.2501 1.2501 0 0 0-0.9707 1.2188v33.291c0 17.572 11.249 30.202 22.33 38.35s22.154 11.961 22.154 11.961a1.2501 1.2501 0 0 0 0.81836-0.001953s11.063-3.842 22.135-12.004c11.071-8.1619 22.312-20.791 22.312-38.305v-33.291a1.2501 1.2501 0 0 0-0.9707-1.2188l-43.625-10a1.2501 1.2501 0 0 0-0.24805-0.03125zm-0.03125 2.5312 42.375 9.7129v32.297c0 16.444-10.562 28.381-21.295 36.293-10.405 7.6709-20.439 11.259-21.064 11.48-0.62326-0.21906-10.666-3.7802-21.08-11.438-10.74-7.8971-21.311-19.831-21.311-36.336v-32.297l42.375-9.7129zm0.052734 16.387c-6.2593 0-11.59 4.2919-12.197 10.732-0.06016 0.6383-0.12891 2.5152-0.12891 3.0957 0 2.7431 0.80489 5.2996 2.1855 7.4043 1.0395 1.5846 2.4165 3.3605 4.0918 4.7891 1.6753 1.4286 3.6941 2.5469 5.9785 2.5469 2.2548 0 4.2526-1.0827 5.916-2.4727 1.6634-1.3899 3.0348-3.1207 4.0781-4.6758 1.3715-2.0442 2.138-4.5787 2.207-7.2363a1.2501 1.2501 0 0 0 0.054687-0.35547c0-0.14202 0.010942-0.82456 0.019531-1.4785 0.008601-0.65396 0.034745-1.1452-0.009765-1.6172-0.6069-6.4405-5.9361-10.732-12.195-10.732zm0 2.5c5.1585 0 9.2155 3.2505 9.707 8.4668-9e-3 -0.09497 0.0084 0.707 0 1.3496-8e-3 0.60525-0.018152 1.1478-0.019532 1.4238-2.2e-5 0.0045-0.001853 0.019057-0.001953 0.023437a1.2501 1.2501 0 0 0-0.001953 0.064453c0 2.295-0.69139 4.4912-1.8359 6.1973-0.95298 1.4205-2.2127 2.9886-3.6055 4.1523s-2.8746 1.8906-4.3125 1.8906c-1.4503 0-2.9496-0.75036-4.3555-1.9492-1.4059-1.1989-2.6748-2.8094-3.625-4.2578-1.1163-1.7018-1.7754-3.7786-1.7754-6.0332 0-0.20687 0.10629-2.7457 0.11719-2.8613 0.49151-5.2163 4.5504-8.4668 9.709-8.4668zm7.4805 23.449-1.5879 1.6055c-1.5604 1.579-4.1917 2.9277-5.9629 2.9277-1.8263 0-4.3028-1.282-5.8848-2.918l-1.4941-1.5449-0.60352 2.0625c-0.04589 0.1567-0.031672 0.12512-0.039062 0.16016-0.0074 0.03503-0.014211 0.07456-0.025391 0.125-0.02236 0.10087-0.05494 0.24062-0.10156 0.41211-0.09325 0.34298-0.24264 0.81463-0.4707 1.3438-0.45613 1.0582-1.2243 2.3282-2.459 3.2988-1.0574 0.83124-3.9251 1.6776-6.8105 2.4141s-5.7825 1.3426-7.6172 2.8516c-3.1378 2.5807-3.6406 6.0781-3.6406 6.0781l-0.20313 1.4258h58.734l-0.35156-1.5293s-0.7897-3.4823-3.9941-5.9941c-1.862-1.4595-4.7677-2.0627-7.6484-2.7988s-5.7238-1.6015-6.7363-2.4316c-1.1283-0.92504-1.7453-2.0917-2.0957-3.1055-0.17521-0.50687-0.28033-0.96947-0.34766-1.332-0.06733-0.36256-0.05448-0.47952-0.14258-0.85352l-0.51758-2.1973zm-13.652 4.5273c1.8034 1.3962 3.8847 2.5059 6.1016 2.5059 2.1707 0 4.2407-1.0853 6.041-2.4277 0.058439 0.21028 0.07663 0.3634 0.15625 0.59375 0.45415 1.3138 1.2936 2.9277 2.873 4.2227 1.8748 1.5371 4.8122 2.1817 7.7012 2.9199 2.889 0.73826 5.7421 1.574 6.7266 2.3457 1.2689 0.99464 2.0336 2.1445 2.4941 3.0547h-52.215c0.3754-0.89677 1.0375-2.032 2.3047-3.0742 0.93447-0.76856 3.761-1.6229 6.6465-2.3594 2.8854-0.73648 5.8358-1.3756 7.7383-2.8711 1.6662-1.3098 2.6396-2.9524 3.209-4.2734 0.10791-0.25036 0.14167-0.41239 0.22266-0.63672z" color="#000000" color-rendering="auto" dominant-baseline="auto" image-rendering="auto" shape-rendering="auto" solid-color="#000000" style="font-feature-settings:normal;font-variant-alternates:normal;font-variant-caps:normal;font-variant-ligatures:normal;font-variant-numeric:normal;font-variant-position:normal;isolation:auto;mix-blend-mode:normal;shape-padding:0;text-decoration-color:#000000;text-decoration-line:none;text-decoration-style:solid;text-indent:0;text-orientation:mixed;text-transform:none;white-space:normal;"/></svg>
