<svg width="19" height="19" viewBox="0 0 19 19" fill="none" xmlns="http://www.w3.org/2000/svg">
<path fill-rule="evenodd" clip-rule="evenodd" d="M0 16.5055V7.55279C0 6.90016 0.318422 6.28858 0.853075 5.91432L8.07928 0.855982C8.76792 0.373933 9.68449 0.373934 10.3731 0.855982L17.5993 5.91432C18.134 6.28858 18.4524 6.90016 18.4524 7.55279V16.5055C18.4524 17.6101 17.557 18.5055 16.4524 18.5055H2C0.895431 18.5055 0 17.6101 0 16.5055ZM13.6122 8.08993C13.915 8.421 13.915 8.95766 13.6122 9.28856L8.41198 14.9745C8.10919 15.3054 7.6185 15.3054 7.31571 14.9745L4.8402 12.2677C4.5374 11.9368 4.5374 11.4001 4.8402 11.0692C5.14284 10.7382 5.63368 10.7382 5.93632 11.0692L7.86377 13.1767L12.5159 8.08993C12.8187 7.75902 13.3096 7.75902 13.6122 8.08993Z" fill="#385c60"/>
</svg>
