<svg width="19" height="19" viewBox="0 0 19 19" fill="none" xmlns="http://www.w3.org/2000/svg">
<path fill-rule="evenodd" clip-rule="evenodd" d="M4.55712 8.6343H4.41011C1.81301 8.6343 0.0489502 10.2514 -5.14984e-05 12.2114V17.0544C-5.14984e-05 17.8528 0.647144 18.5 1.4455 18.5C2.24386 18.5 2.89106 17.8528 2.89106 17.0544V13.2895C2.89106 12.9377 3.17626 12.6525 3.52808 12.6525H3.57708C3.95596 12.6525 4.26311 12.9596 4.26311 13.3385V16.5C4.26311 17.6046 5.15854 18.5 6.26311 18.5H10.7404C11.845 18.5 12.7404 17.6046 12.7404 16.5V12.6034L18.0326 7.52359C18.1306 7.37659 18.2286 7.22958 18.2776 7.08258C18.3756 6.88657 18.4736 6.64156 18.4736 6.34755L18.3756 2.06806C18.3756 1.18603 17.6406 0.5 16.7586 0.5C15.8765 0.5 15.1905 1.23503 15.1905 2.11706L15.2395 5.80853L12.1872 8.39698C12.0066 8.5502 11.7774 8.6343 11.5405 8.6343H7.35022H4.55712ZM4.55707 4.32036C4.55707 6.37714 6.22442 8.04449 8.28121 8.04449C10.338 8.04449 12.0053 6.37714 12.0053 4.32036C12.0053 2.26357 10.338 0.596217 8.28121 0.596217C6.22442 0.596217 4.55707 2.26357 4.55707 4.32036Z" fill="#385c60"/>
</svg>
