<svg width="18" height="15" viewBox="0 0 18 15" fill="none" xmlns="http://www.w3.org/2000/svg">
	<path d="M17.9998 8.32761C17.9998 7.97355 17.9198 7.63538 17.7755 7.326C17.7606 7.24735 17.7436 7.16882 17.7223 7.08916L16.1588 3.21429L16.1482 3.17942C15.6011 1.55054 14.8227 0.0429688 12.849 0.0429688H5.30247C3.28005 0.0429688 2.56539 1.58789 2.00634 3.17038L0.370861 7.0547C0.134424 7.43353 1.29525e-07 7.86687 1.29525e-07 8.32761V9.53336C1.29525e-07 9.71977 2.32676e-05 9.86115 2.16949e-05 10.0778C-3.01598e-06 10.2944 1.29525e-07 10.2982 1.29525e-07 10.4188V14.005C1.29525e-07 14.5308 0.426311 14.9572 0.952183 14.9572H2.92812C3.45371 14.9572 3.88003 14.5308 3.88003 14.005V12.2116H14.2326V14.005C14.2326 14.5308 14.659 14.9572 15.1849 14.9572H17.0477C17.5738 14.9572 18 14.5308 18 14.005V10.4184C18 10.2983 17.9994 10.221 17.9998 10.014C18 9.86115 18 9.71957 18 9.53319L17.9998 8.32761ZM3.16673 3.55941C3.78931 1.8029 4.28997 1.26669 5.30247 1.26669H12.8485C13.8536 1.26669 14.4132 1.86474 14.9819 3.55185V5.64951C14.6094 5.51155 15.3404 5.64951 14.9096 5.64951H3.09013C3.43208 5.53664 2.7023 5.64951 3.09013 5.64951L3.16673 3.55941ZM4.14686 9.99127H2.06203C1.68667 9.99127 1.38223 9.68656 1.38223 9.31123C1.38223 8.93579 1.68667 8.63127 2.06203 8.63127H4.14686C4.52239 8.63127 4.82682 8.93579 4.82682 9.31123C4.82682 9.68656 4.52219 9.99127 4.14686 9.99127ZM15.8852 9.99127H13.8004C13.4247 9.99127 13.1205 9.68656 13.1205 9.31123C13.1205 8.93579 13.425 8.63127 13.8004 8.63127H15.8852C16.2609 8.63127 16.5654 8.93579 16.5654 9.31123C16.5654 9.68656 16.2609 9.99127 15.8852 9.99127Z" fill="#385C60" />
</svg>
