<svg width="19" height="19" viewBox="0 0 19 19" fill="none" xmlns="http://www.w3.org/2000/svg">
<path fill-rule="evenodd" clip-rule="evenodd" d="M9.5 18.5C14.4706 18.5 18.5 14.4706 18.5 9.5C18.5 4.52944 14.4706 0.5 9.5 0.5C4.52944 0.5 0.5 4.52944 0.5 9.5C0.5 14.4706 4.52944 18.5 9.5 18.5ZM8.07753 6.17972C8.07756 5.65948 8.50082 5.23775 9.02295 5.23772C9.54508 5.23775 9.96835 5.65949 9.96837 6.17973V10.7448L11.9894 12.7585C12.3577 13.1265 12.3573 13.7222 11.9885 14.0896C11.6197 14.4571 11.0218 14.4575 10.6525 14.0905L8.35512 11.8015C8.31097 11.7574 8.2713 11.7091 8.23668 11.6572C8.2266 11.6422 8.2186 11.6264 8.21059 11.6105C8.20633 11.6021 8.20208 11.5936 8.1975 11.5853C8.16055 11.5288 8.13435 11.466 8.12021 11.4C8.11752 11.3909 8.11455 11.382 8.11158 11.373C8.10573 11.3554 8.0999 11.3378 8.0962 11.3193C8.08393 11.2586 8.07768 11.1968 8.07753 11.1348V6.17972Z" fill="#385c60"/>
</svg>
